<?xml version="1.0" standalone="no"?>
<!DOCTYPE svg PUBLIC "-//W3C//DTD SVG 20010904//EN"
 "http://www.w3.org/TR/2001/REC-SVG-20010904/DTD/svg10.dtd">
<svg version="1.0" xmlns="http://www.w3.org/2000/svg"
 width="180.000000pt" height="180.000000pt" viewBox="0 0 180.000000 180.000000"
 preserveAspectRatio="xMidYMid meet">
<metadata>
Created by potrace 1.11, written by Peter Selinger 2001-2013
</metadata>
<g transform="translate(0.000000,180.000000) scale(0.100000,-0.100000)"
fill="#000000" stroke="none">
<path d="M710 1780 c0 -18 -7 -20 -55 -20 -48 0 -55 -2 -55 -20 0 -18 -7 -20
-55 -20 -42 0 -55 -3 -55 -15 0 -8 -9 -15 -20 -15 -13 0 -20 -7 -20 -20 0 -16
-7 -20 -35 -20 -28 0 -35 -4 -35 -20 0 -13 -7 -20 -20 -20 -13 0 -20 -7 -20
-20 0 -13 -7 -20 -20 -20 -11 0 -20 -7 -20 -15 0 -8 -9 -15 -20 -15 -13 0 -20
-7 -20 -20 0 -11 -7 -20 -15 -20 -8 0 -15 -9 -15 -20 0 -13 -7 -20 -20 -20
-13 0 -20 -7 -20 -20 0 -13 -7 -20 -20 -20 -16 0 -20 -7 -20 -35 0 -28 -4 -35
-20 -35 -13 0 -20 -7 -20 -20 0 -11 -7 -20 -15 -20 -12 0 -15 -13 -15 -55 0
-48 -2 -55 -20 -55 -18 0 -20 -7 -20 -55 0 -48 -2 -55 -20 -55 -19 0 -20 -7
-20 -190 0 -183 1 -190 20 -190 18 0 20 -7 20 -55 0 -48 2 -55 20 -55 18 0 20
-7 20 -55 0 -42 3 -55 15 -55 8 0 15 -9 15 -20 0 -13 7 -20 20 -20 17 0 20 -7
20 -40 0 -33 3 -40 20 -40 11 0 20 -7 20 -15 0 -8 9 -15 20 -15 13 0 20 -7 20
-20 0 -11 7 -20 15 -20 8 0 15 -9 15 -20 0 -13 7 -20 20 -20 13 0 20 -7 20
-20 0 -13 7 -20 20 -20 11 0 20 -7 20 -15 0 -8 9 -15 20 -15 13 0 20 -7 20
-20 0 -16 7 -20 35 -20 28 0 35 -4 35 -20 0 -13 7 -20 20 -20 13 0 20 -7 20
-20 0 -18 7 -20 55 -20 42 0 55 -3 55 -15 0 -12 13 -15 55 -15 48 0 55 -2 55
-20 0 -19 7 -20 190 -20 183 0 190 1 190 20 0 18 7 20 55 20 42 0 55 3 55 15
0 12 13 15 55 15 48 0 55 2 55 20 0 13 7 20 20 20 13 0 20 7 20 20 0 17 7 20
40 20 33 0 40 3 40 20 0 11 7 20 15 20 8 0 15 7 15 15 0 8 9 15 20 15 13 0 20
7 20 20 0 13 7 20 20 20 13 0 20 7 20 20 0 13 7 20 20 20 13 0 20 7 20 20 0
11 7 20 15 20 8 0 15 7 15 15 0 8 9 15 20 15 17 0 20 7 20 40 0 33 3 40 20 40
13 0 20 7 20 20 0 13 7 20 20 20 18 0 20 7 20 55 0 42 3 55 15 55 12 0 15 13
15 55 0 48 2 55 20 55 19 0 20 7 20 190 0 183 -1 190 -20 190 -18 0 -20 7 -20
55 0 42 -3 55 -15 55 -12 0 -15 13 -15 55 0 48 -2 55 -20 55 -13 0 -20 7 -20
20 0 13 -7 20 -20 20 -16 0 -20 7 -20 35 0 28 -4 35 -20 35 -13 0 -20 7 -20
20 0 11 -7 20 -15 20 -8 0 -15 9 -15 20 0 13 -7 20 -20 20 -13 0 -20 7 -20 20
0 13 -7 20 -20 20 -11 0 -20 7 -20 15 0 8 -9 15 -20 15 -13 0 -20 7 -20 20 0
11 -7 20 -15 20 -8 0 -15 9 -15 20 0 17 -7 20 -40 20 -33 0 -40 3 -40 20 0 13
-7 20 -20 20 -11 0 -20 7 -20 15 0 12 -13 15 -55 15 -48 0 -55 2 -55 20 0 18
-7 20 -55 20 -48 0 -55 2 -55 20 0 19 -7 20 -190 20 -183 0 -190 -1 -190 -20z
m380 -110 c0 -18 7 -20 55 -20 48 0 55 -2 55 -20 0 -17 7 -20 40 -20 33 0 40
-3 40 -20 0 -16 7 -20 35 -20 24 0 35 -5 35 -15 0 -8 9 -15 20 -15 13 0 20 -7
20 -20 0 -13 7 -20 20 -20 13 0 20 -7 20 -20 0 -11 7 -20 15 -20 8 0 15 -9 15
-20 0 -13 7 -20 20 -20 11 0 20 -7 20 -15 0 -8 9 -15 20 -15 13 0 20 -7 20
-20 0 -13 7 -20 20 -20 17 0 20 -7 20 -40 0 -29 4 -40 15 -40 10 0 15 -11 15
-35 0 -28 4 -35 20 -35 18 0 20 -7 20 -55 0 -48 2 -55 20 -55 19 0 20 -7 20
-190 0 -183 -1 -190 -20 -190 -18 0 -20 -7 -20 -55 0 -48 -2 -55 -20 -55 -17
0 -20 -7 -20 -40 0 -29 -4 -40 -15 -40 -10 0 -15 -11 -15 -35 0 -28 -4 -35
-20 -35 -13 0 -20 -7 -20 -20 0 -13 -7 -20 -20 -20 -13 0 -20 -7 -20 -20 0
-13 -7 -20 -20 -20 -11 0 -20 -7 -20 -15 0 -8 -7 -15 -15 -15 -8 0 -15 -9 -15
-20 0 -13 -7 -20 -20 -20 -13 0 -20 -7 -20 -20 0 -13 -7 -20 -20 -20 -13 0
-20 -7 -20 -20 0 -16 -7 -20 -35 -20 -24 0 -35 -5 -35 -15 0 -11 -11 -15 -40
-15 -33 0 -40 -3 -40 -20 0 -18 -7 -20 -55 -20 -48 0 -55 -2 -55 -20 0 -19 -7
-20 -190 -20 -183 0 -190 1 -190 20 0 18 -7 20 -55 20 -48 0 -55 2 -55 20 0
16 -7 20 -35 20 -24 0 -35 5 -35 15 0 11 -11 15 -40 15 -33 0 -40 3 -40 20 0
13 -7 20 -20 20 -13 0 -20 7 -20 20 0 11 -7 20 -15 20 -8 0 -15 9 -15 20 0 13
-7 20 -20 20 -11 0 -20 7 -20 15 0 8 -9 15 -20 15 -13 0 -20 7 -20 20 0 13 -7
20 -20 20 -13 0 -20 7 -20 20 0 11 -7 20 -15 20 -10 0 -15 11 -15 35 0 28 -4
35 -20 35 -17 0 -20 7 -20 40 0 33 -3 40 -20 40 -18 0 -20 7 -20 55 0 48 -2
55 -20 55 -19 0 -20 7 -20 190 0 183 1 190 20 190 18 0 20 7 20 55 0 48 2 55
20 55 16 0 20 7 20 35 0 28 4 35 20 35 17 0 20 7 20 40 0 29 4 40 15 40 8 0
15 9 15 20 0 13 7 20 20 20 11 0 20 7 20 15 0 8 9 15 20 15 13 0 20 7 20 20 0
13 7 20 20 20 13 0 20 7 20 20 0 11 7 20 15 20 8 0 15 9 15 20 0 13 7 20 20
20 11 0 20 7 20 15 0 11 11 15 40 15 33 0 40 3 40 20 0 16 7 20 35 20 28 0 35
4 35 20 0 18 7 20 55 20 48 0 55 2 55 20 0 19 7 20 190 20 183 0 190 -1 190
-20z"/>
<path d="M450 1105 c0 -8 -9 -15 -20 -15 -13 0 -20 -7 -20 -20 0 -13 7 -20 20
-20 13 0 20 -7 20 -20 0 -18 7 -20 55 -20 48 0 55 -2 55 -20 0 -18 7 -20 60
-20 47 0 60 -3 60 -15 0 -8 7 -15 15 -15 8 0 15 -9 15 -20 0 -13 7 -20 20 -20
13 0 20 -7 20 -20 0 -13 7 -20 20 -20 16 0 20 -7 20 -35 0 -28 4 -35 20 -35
18 0 20 -7 20 -60 0 -47 3 -60 15 -60 10 0 15 -11 15 -35 0 -34 1 -35 40 -35
l40 0 0 110 c0 103 -1 110 -20 110 -17 0 -20 7 -20 40 0 33 -3 40 -20 40 -13
0 -20 7 -20 20 0 11 -7 20 -15 20 -8 0 -15 7 -15 15 0 8 -9 15 -20 15 -13 0
-20 7 -20 20 0 13 -7 20 -20 20 -13 0 -20 7 -20 20 0 16 -7 20 -35 20 -28 0
-35 4 -35 20 0 18 -7 20 -75 20 -60 0 -75 3 -75 15 0 11 -11 15 -40 15 -29 0
-40 -4 -40 -15z"/>
<path d="M1240 1105 c0 -12 -13 -15 -55 -15 -48 0 -55 -2 -55 -20 0 -17 -7
-20 -40 -20 -33 0 -40 -3 -40 -20 0 -13 -7 -20 -20 -20 -13 0 -20 -7 -20 -20
0 -11 -7 -20 -15 -20 -10 0 -15 -11 -15 -35 0 -24 5 -35 15 -35 8 0 15 -9 15
-20 0 -13 7 -20 20 -20 13 0 20 7 20 20 0 13 7 20 20 20 13 0 20 7 20 20 0 13
7 20 20 20 11 0 20 7 20 15 0 12 13 15 55 15 48 0 55 2 55 20 0 18 7 20 55 20
48 0 55 2 55 20 0 13 7 20 20 20 13 0 20 7 20 20 0 13 -7 20 -20 20 -11 0 -20
7 -20 15 0 12 -13 15 -55 15 -42 0 -55 -3 -55 -15z"/>
</g>
</svg>
